<mxfile host="app.diagrams.net" agent="Mozilla/5.0 (Macintosh; Intel Mac OS X 10_15_7) AppleWebKit/537.36 (KHTML, like Gecko) Chrome/137.0.0.0 Safari/537.36" version="27.1.4">
  <diagram name="Página-1" id="8Nr6kVrE9SyybX-va9n5">
    <mxGraphModel dx="1198" dy="771" grid="1" gridSize="5" guides="1" tooltips="1" connect="1" arrows="1" fold="1" page="1" pageScale="1" pageWidth="1169" pageHeight="827" math="0" shadow="0">
      <root>
        <mxCell id="0" />
        <mxCell id="1" parent="0" />
        <mxCell id="F-6HF-LXUj0dGaGDXy4D-36" value="&lt;font style=&quot;font-size: 14px;&quot;&gt;Plano de control&lt;/font&gt;" style="swimlane;horizontal=0;whiteSpace=wrap;html=1;startSize=23;strokeWidth=1;" vertex="1" parent="1">
          <mxGeometry x="120" y="40" width="360" height="300" as="geometry" />
        </mxCell>
        <mxCell id="F-6HF-LXUj0dGaGDXy4D-40" value="" style="rounded=1;whiteSpace=wrap;html=1;arcSize=2;" vertex="1" parent="F-6HF-LXUj0dGaGDXy4D-36">
          <mxGeometry x="50" y="160" width="275" height="100" as="geometry" />
        </mxCell>
        <mxCell id="F-6HF-LXUj0dGaGDXy4D-7" value="" style="shape=mxgraph.cisco.switches.generic_softswitch;html=1;pointerEvents=1;dashed=0;fillColor=#FF3333;strokeColor=#ffffff;strokeWidth=2;verticalLabelPosition=bottom;verticalAlign=top;align=center;outlineConnect=0;" vertex="1" parent="F-6HF-LXUj0dGaGDXy4D-36">
          <mxGeometry x="65" y="195" width="35" height="55" as="geometry" />
        </mxCell>
        <mxCell id="F-6HF-LXUj0dGaGDXy4D-41" value="" style="shape=mxgraph.cisco.switches.generic_softswitch;html=1;pointerEvents=1;dashed=0;fillColor=#FF3333;strokeColor=#ffffff;strokeWidth=2;verticalLabelPosition=bottom;verticalAlign=top;align=center;outlineConnect=0;" vertex="1" parent="F-6HF-LXUj0dGaGDXy4D-36">
          <mxGeometry x="110" y="195" width="35" height="55" as="geometry" />
        </mxCell>
        <mxCell id="F-6HF-LXUj0dGaGDXy4D-42" value="" style="shape=mxgraph.cisco.switches.generic_softswitch;html=1;pointerEvents=1;dashed=0;fillColor=#FF3333;strokeColor=#ffffff;strokeWidth=2;verticalLabelPosition=bottom;verticalAlign=top;align=center;outlineConnect=0;" vertex="1" parent="F-6HF-LXUj0dGaGDXy4D-36">
          <mxGeometry x="155" y="195" width="35" height="55" as="geometry" />
        </mxCell>
        <mxCell id="F-6HF-LXUj0dGaGDXy4D-43" value="" style="shape=mxgraph.cisco.switches.generic_softswitch;html=1;pointerEvents=1;dashed=0;fillColor=#FF3333;strokeColor=#ffffff;strokeWidth=2;verticalLabelPosition=bottom;verticalAlign=top;align=center;outlineConnect=0;" vertex="1" parent="F-6HF-LXUj0dGaGDXy4D-36">
          <mxGeometry x="200" y="195" width="35" height="55" as="geometry" />
        </mxCell>
        <mxCell id="F-6HF-LXUj0dGaGDXy4D-44" value="" style="shape=mxgraph.cisco.switches.generic_softswitch;html=1;pointerEvents=1;dashed=0;fillColor=#FF3333;strokeColor=#ffffff;strokeWidth=2;verticalLabelPosition=bottom;verticalAlign=top;align=center;outlineConnect=0;" vertex="1" parent="F-6HF-LXUj0dGaGDXy4D-36">
          <mxGeometry x="275" y="195" width="35" height="55" as="geometry" />
        </mxCell>
        <mxCell id="F-6HF-LXUj0dGaGDXy4D-46" value="&lt;font style=&quot;font-size: 15px;&quot;&gt;...&lt;/font&gt;" style="text;html=1;align=center;verticalAlign=middle;whiteSpace=wrap;rounded=0;" vertex="1" parent="F-6HF-LXUj0dGaGDXy4D-36">
          <mxGeometry x="225" y="218.75" width="60" height="7.5" as="geometry" />
        </mxCell>
        <mxCell id="F-6HF-LXUj0dGaGDXy4D-47" value="" style="rounded=1;whiteSpace=wrap;html=1;arcSize=2;" vertex="1" parent="F-6HF-LXUj0dGaGDXy4D-36">
          <mxGeometry x="50" y="20" width="275" height="100" as="geometry" />
        </mxCell>
        <mxCell id="F-6HF-LXUj0dGaGDXy4D-57" value="&lt;font style=&quot;font-size: 15px;&quot;&gt;&lt;b&gt;Capa de Control&lt;/b&gt;&lt;/font&gt;" style="text;html=1;align=center;verticalAlign=middle;whiteSpace=wrap;rounded=0;" vertex="1" parent="F-6HF-LXUj0dGaGDXy4D-36">
          <mxGeometry x="75.5" y="160" width="224" height="30" as="geometry" />
        </mxCell>
        <mxCell id="F-6HF-LXUj0dGaGDXy4D-58" value="&lt;font style=&quot;font-size: 15px;&quot;&gt;&lt;b&gt;Capa de Aplicación&lt;/b&gt;&lt;/font&gt;" style="text;html=1;align=center;verticalAlign=middle;whiteSpace=wrap;rounded=0;" vertex="1" parent="F-6HF-LXUj0dGaGDXy4D-36">
          <mxGeometry x="75.5" y="20" width="224" height="30" as="geometry" />
        </mxCell>
        <mxCell id="F-6HF-LXUj0dGaGDXy4D-59" value="APP" style="rounded=1;whiteSpace=wrap;html=1;fillColor=#008a00;fontColor=#ffffff;strokeColor=#005700;" vertex="1" parent="F-6HF-LXUj0dGaGDXy4D-36">
          <mxGeometry x="65" y="75" width="45" height="25" as="geometry" />
        </mxCell>
        <mxCell id="F-6HF-LXUj0dGaGDXy4D-60" value="APP" style="rounded=1;whiteSpace=wrap;html=1;fillColor=#008a00;fontColor=#ffffff;strokeColor=#005700;" vertex="1" parent="F-6HF-LXUj0dGaGDXy4D-36">
          <mxGeometry x="125" y="75" width="45" height="25" as="geometry" />
        </mxCell>
        <mxCell id="F-6HF-LXUj0dGaGDXy4D-61" value="APP" style="rounded=1;whiteSpace=wrap;html=1;fillColor=#008a00;fontColor=#ffffff;strokeColor=#005700;" vertex="1" parent="F-6HF-LXUj0dGaGDXy4D-36">
          <mxGeometry x="185" y="75" width="45" height="25" as="geometry" />
        </mxCell>
        <mxCell id="F-6HF-LXUj0dGaGDXy4D-62" value="APP" style="rounded=1;whiteSpace=wrap;html=1;fillColor=#008a00;fontColor=#ffffff;strokeColor=#005700;" vertex="1" parent="F-6HF-LXUj0dGaGDXy4D-36">
          <mxGeometry x="265" y="75" width="45" height="25" as="geometry" />
        </mxCell>
        <mxCell id="F-6HF-LXUj0dGaGDXy4D-63" value="&lt;font style=&quot;font-size: 15px;&quot;&gt;...&lt;/font&gt;" style="text;html=1;align=center;verticalAlign=middle;whiteSpace=wrap;rounded=0;" vertex="1" parent="F-6HF-LXUj0dGaGDXy4D-36">
          <mxGeometry x="230" y="80" width="35" height="7.5" as="geometry" />
        </mxCell>
        <mxCell id="F-6HF-LXUj0dGaGDXy4D-66" value="" style="endArrow=classic;startArrow=classic;html=1;rounded=0;strokeWidth=4;endSize=1;startSize=1;exitX=0.5;exitY=0;exitDx=0;exitDy=0;entryX=0.5;entryY=1;entryDx=0;entryDy=0;" edge="1" parent="F-6HF-LXUj0dGaGDXy4D-36" source="F-6HF-LXUj0dGaGDXy4D-57" target="F-6HF-LXUj0dGaGDXy4D-47">
          <mxGeometry width="50" height="50" relative="1" as="geometry">
            <mxPoint x="180" y="150" as="sourcePoint" />
            <mxPoint x="180" y="120" as="targetPoint" />
          </mxGeometry>
        </mxCell>
        <mxCell id="F-6HF-LXUj0dGaGDXy4D-68" value="&lt;b&gt;&lt;font style=&quot;font-size: 14px;&quot;&gt;Interfaz northbound&lt;/font&gt;&lt;/b&gt;" style="text;html=1;align=center;verticalAlign=middle;whiteSpace=wrap;rounded=0;" vertex="1" parent="F-6HF-LXUj0dGaGDXy4D-36">
          <mxGeometry x="165" y="125" width="224" height="30" as="geometry" />
        </mxCell>
        <mxCell id="F-6HF-LXUj0dGaGDXy4D-38" value="&lt;font style=&quot;font-size: 14px;&quot;&gt;Plano de datos&lt;/font&gt;" style="swimlane;horizontal=0;whiteSpace=wrap;html=1;startSize=23;" vertex="1" parent="1">
          <mxGeometry x="120" y="380" width="360" height="300" as="geometry">
            <mxRectangle x="120" y="330" width="35" height="115" as="alternateBounds" />
          </mxGeometry>
        </mxCell>
        <mxCell id="F-6HF-LXUj0dGaGDXy4D-39" value="" style="rounded=1;whiteSpace=wrap;html=1;arcSize=2;" vertex="1" parent="F-6HF-LXUj0dGaGDXy4D-38">
          <mxGeometry x="50" y="40" width="275" height="240" as="geometry" />
        </mxCell>
        <mxCell id="F-6HF-LXUj0dGaGDXy4D-12" value="" style="endArrow=none;html=1;rounded=0;exitX=0.5;exitY=0.98;exitDx=0;exitDy=0;exitPerimeter=0;strokeWidth=3;entryX=0.87;entryY=0.74;entryDx=0;entryDy=0;entryPerimeter=0;" edge="1" parent="F-6HF-LXUj0dGaGDXy4D-38">
          <mxGeometry width="50" height="50" relative="1" as="geometry">
            <mxPoint x="265" y="104" as="sourcePoint" />
            <mxPoint x="146" y="110" as="targetPoint" />
          </mxGeometry>
        </mxCell>
        <mxCell id="F-6HF-LXUj0dGaGDXy4D-13" value="" style="endArrow=none;html=1;rounded=0;exitX=0.5;exitY=0.98;exitDx=0;exitDy=0;exitPerimeter=0;strokeWidth=3;entryX=0.5;entryY=0.98;entryDx=0;entryDy=0;entryPerimeter=0;" edge="1" parent="F-6HF-LXUj0dGaGDXy4D-38">
          <mxGeometry width="50" height="50" relative="1" as="geometry">
            <mxPoint x="195" y="204" as="sourcePoint" />
            <mxPoint x="110" y="119" as="targetPoint" />
          </mxGeometry>
        </mxCell>
        <mxCell id="F-6HF-LXUj0dGaGDXy4D-11" value="" style="endArrow=none;html=1;rounded=0;strokeWidth=3;entryX=0.5;entryY=0.98;entryDx=0;entryDy=0;entryPerimeter=0;" edge="1" parent="F-6HF-LXUj0dGaGDXy4D-38">
          <mxGeometry width="50" height="50" relative="1" as="geometry">
            <mxPoint x="253" y="105" as="sourcePoint" />
            <mxPoint x="195" y="204" as="targetPoint" />
          </mxGeometry>
        </mxCell>
        <mxCell id="F-6HF-LXUj0dGaGDXy4D-14" value="" style="shape=mxgraph.cisco.switches.workgroup_switch;html=1;pointerEvents=1;dashed=0;fillColor=#036897;strokeColor=#ffffff;strokeWidth=2;verticalLabelPosition=bottom;verticalAlign=top;align=center;outlineConnect=0;" vertex="1" parent="F-6HF-LXUj0dGaGDXy4D-38">
          <mxGeometry x="62" y="90" width="96" height="50" as="geometry" />
        </mxCell>
        <mxCell id="F-6HF-LXUj0dGaGDXy4D-16" value="" style="shape=mxgraph.cisco.switches.workgroup_switch;html=1;pointerEvents=1;dashed=0;fillColor=#036897;strokeColor=#ffffff;strokeWidth=2;verticalLabelPosition=bottom;verticalAlign=top;align=center;outlineConnect=0;" vertex="1" parent="F-6HF-LXUj0dGaGDXy4D-38">
          <mxGeometry x="217" y="75" width="96" height="50" as="geometry" />
        </mxCell>
        <mxCell id="F-6HF-LXUj0dGaGDXy4D-15" value="" style="shape=mxgraph.cisco.switches.workgroup_switch;html=1;pointerEvents=1;dashed=0;fillColor=#036897;strokeColor=#ffffff;strokeWidth=2;verticalLabelPosition=bottom;verticalAlign=top;align=center;outlineConnect=0;" vertex="1" parent="F-6HF-LXUj0dGaGDXy4D-38">
          <mxGeometry x="147" y="175" width="96" height="50" as="geometry" />
        </mxCell>
        <mxCell id="F-6HF-LXUj0dGaGDXy4D-22" value="&lt;font style=&quot;font-size: 15px;&quot;&gt;&lt;b&gt;Capa de Infraestructura&lt;/b&gt;&lt;/font&gt;" style="text;html=1;align=center;verticalAlign=middle;whiteSpace=wrap;rounded=0;" vertex="1" parent="F-6HF-LXUj0dGaGDXy4D-38">
          <mxGeometry x="75.5" y="245" width="224" height="30" as="geometry" />
        </mxCell>
        <mxCell id="F-6HF-LXUj0dGaGDXy4D-64" value="" style="endArrow=classic;startArrow=classic;html=1;rounded=0;exitX=0.5;exitY=0;exitDx=0;exitDy=0;strokeWidth=6;endSize=3;startSize=3;entryX=0.5;entryY=1;entryDx=0;entryDy=0;" edge="1" parent="1" source="F-6HF-LXUj0dGaGDXy4D-39" target="F-6HF-LXUj0dGaGDXy4D-40">
          <mxGeometry width="50" height="50" relative="1" as="geometry">
            <mxPoint x="305" y="410" as="sourcePoint" />
            <mxPoint x="305" y="310" as="targetPoint" />
          </mxGeometry>
        </mxCell>
        <mxCell id="F-6HF-LXUj0dGaGDXy4D-67" value="&lt;b&gt;&lt;font style=&quot;font-size: 15px;&quot;&gt;Interfaz southbound&lt;/font&gt;&lt;/b&gt;" style="text;html=1;align=center;verticalAlign=middle;whiteSpace=wrap;rounded=0;" vertex="1" parent="1">
          <mxGeometry x="295" y="345" width="224" height="30" as="geometry" />
        </mxCell>
      </root>
    </mxGraphModel>
  </diagram>
</mxfile>
